# xmcd
#
# Track frame offsets:
#	150
#	15767
#	33400
#	50743
#	65297
#	86192
#	112315
#	133660
#	157380
#	178190
#	199150
#	220860
#	244057
#	260527
#	281493
#
# Disc length: 4140 seconds
#
# Revision: 0
# Processed by: cddbd v1.4PL0 Copyright (c) Steve Scherf et al.
# Submitted via: dBpowerAMP V4.0
#
DISCID=e4102a0f
DTITLE=СВ - Лучшее
DYEAR=1997
DGENRE=Blues
TTITLE0=Поезд
TTITLE1=Вера, Надежда, Любовь
TTITLE2=Кто виноват?
TTITLE3=Вот и лето прошло
TTITLE4=Кому ты смотришь в спину
TTITLE5=Дело дрянь
TTITLE6=Солдат Вселенной
TTITLE7=Научи меня жить
TTITLE8=Бег
TTITLE9=Звон
TTITLE10=Пили и курили
TTITLE11=Все по кайфу
TTITLE12=Надежда, Любовь и Вера
TTITLE13=Колыбельная
TTITLE14=СВ
EXTD=SquareMan
EXTT0=
EXTT1=
EXTT2=
EXTT3=
EXTT4=
EXTT5=
EXTT6=
EXTT7=
EXTT8=
EXTT9=
EXTT10=
EXTT11=
EXTT12=
EXTT13=
EXTT14=
PLAYORDER=
